<svg xmlns="http://www.w3.org/2000/svg"
  id="logo"
  aria-hidden="true"
  role="img"
  color-rendering="optimizeQuality"
  shape-rendering="geometricPrecision"
  viewBox="0 0 16 16">
  <defs>
    <radialGradient
      id="a"
      cx="2.3%"
      cy="2.3%"
      r="69%"
      fx="9.6%"
      fy="9.6%"
      gradientUnits="objectBoundingBox">
      <stop
        offset="0%"
        stop-color="var(--zee-primary-variant)" />
      <stop
        offset="100%"
        stop-color="var(--zee-primary)" />
    </radialGradient>
    <radialGradient
      id="f"
      href="#a">
      <stop
        offset="0%"
        stop-color="var(--zee-alternate-variant)" />
      <stop
        offset="100%"
        stop-color="var(--zee-alternate)" />
    </radialGradient>
    <radialGradient
      id="c"
      href="#a">
      <stop
        offset="0%"
        stop-color="#fff"
        stop-opacity="0" />
      <stop
        offset="100%"
        stop-color="#fff"
        stop-opacity=".69" />
    </radialGradient>
    <pattern
      id="b"
      width="6"
      height="6"
      stroke="none"
      patternTransform="scale(.032)"
      patternUnits="userSpaceOnUse">
      <path
        fill="#aaa"
        d="M0 0h6v6H0Z" />
      <path
        fill="#fff"
        d="M5 0h1L0 6V5zm1 5v1H5z" />
    </pattern>
    <mask id="e">
      <path
        fill="url(#b)"
        d="M0 0h16v16H0Z" />
      <path
        fill="url(#c)"
        d="M0 0h16v16H0Z" />
    </mask>
  </defs>
  <g mask="url(#e)">
    <path
      fill="url(#a)"
      d="M7.44 9.54H6.1c-1.01.05-1.6.22-1.67 1.96v4.44c-4.38 0-4.38 0-4.38-1.98V2.06C.05.08.05.08 4.43.08v4.43c0 1.63.66 1.91 1.67 1.97h3.8c1.02-.07 1.67-.34 1.67-1.96V.08c4.4 0 4.38 0 4.38 1.98v11.9c0 1.98.02 1.98-4.38 1.98V11.5c.01-1.74-.65-1.9-1.67-1.96Z" />
    <path
      fill="url(#f)"
      d="M8 3.31c-.56 0-.56-.85.02-.85h2.76V1.31c0-.4 0-1.26-.8-1.26L6.22.08c-1 0-1 .79-1 1.19v3.17c0 .4 0 1.26 1 1.26l3.76.01c.8.01.8-.86.8-1.25V3.31Zm.01 10.23c-.56 0-.56-.85.02-.85h2.76v-1.15c0-.39 0-1.26-.8-1.26l-3.76.03c-1 0-1 .8-1 1.19v3.18c0 .39 0 1.26 1 1.26l3.76.01c.8 0 .8-.86.8-1.26v-1.15Z" />
  </g>
</svg>